# xmcd
#
# Track frame offsets: 
#        150
#        459
#        17123
#        35501
#        50340
#        68528
#        87765
#        109009
#        132454
#        159686
#        175987
#        200541
#        222182
#        247069
#
# Disc length: 3521 seconds
#
# Revision: 1
# Processed by: cddbd v1.5.1PL0 Copyright (c) Steve Scherf et al.
# Submitted via: ExactAudioCopy v0.95a5
#
DISCID=bb0dbf0e
DTITLE=Buddaheads - Mumbo Jumbo
DYEAR=2003
DGENRE=Blues
TTITLE0=Intro
TTITLE1=All Night Long
TTITLE2=Mumbo Jumbo
TTITLE3=Hurricane
TTITLE4=Hold On
TTITLE5=For To Long
TTITLE6=Wine, Women and Workin'
TTITLE7=Mood For Love
TTITLE8=Tupelo Honey
TTITLE9=Show Down
TTITLE10=Amen
TTITLE11=Sooner Or Later
TTITLE12=Jeff and His Little Buddies
TTITLE13=Don't Cry
EXTD=Bluesfestradio.com
EXTT0=
EXTT1=
EXTT2=
EXTT3=
EXTT4=
EXTT5=
EXTT6=
EXTT7=
EXTT8=
EXTT9=
EXTT10=
EXTT11=
EXTT12=
EXTT13=
PLAYORDER=
